Coordinates
version=1
nRows=5
nColumns=63
inDegrees=yes

Units are S.I. units (second, meters, Newtons, ...)
If the header above contains a line with 'inDegrees', this indicates whether rotational values are in degrees (yes) or radians (no).

endheader
time	pelvis_tilt	pelvis_list	pelvis_rotation	pelvis_tx	pelvis_ty	pelvis_tz	hip_flexion_r	hip_adduction_r	hip_rotation_r	knee_angle_r	knee_angle_r_beta	ankle_angle_r	subtalar_angle_r	mtp_angle_r	hip_flexion_l	hip_adduction_l	hip_rotation_l	knee_angle_l	knee_angle_l_beta	ankle_angle_l	subtalar_angle_l	mtp_angle_l	L5_S1_Flex_Ext	L5_S1_Lat_Bending	L5_S1_axial_rotation	L4_L5_Flex_Ext	L4_L5_Lat_Bending	L4_L5_axial_rotation	L3_L4_Flex_Ext	L3_L4_Lat_Bending	L3_L4_axial_rotation	L2_L3_Flex_Ext	L2_L3_Lat_Bending	L2_L3_axial_rotation	L1_L2_Flex_Ext	L1_L2_Lat_Bending	L1_L2_axial_rotation	L1_T12_Flex_Ext	L1_T12_Lat_Bending	L1_T12_axial_rotation	Abs_r3	Abs_r2	Abs_r1	Abs_t1	Abs_t2	neck_flexion	neck_bending	neck_rotation	arm_flex_r	arm_add_r	arm_rot_r	elbow_flex_r	pro_sup_r	wrist_flex_r	wrist_dev_r	arm_flex_l	arm_add_l	arm_rot_l	elbow_flex_l	pro_sup_l	wrist_flex_l	wrist_dev_l
      0.00000000	      4.07825693	     -4.21737454	     90.36971990	      0.30071956	      0.74435793	      0.63876521	      1.50503174	      6.87583951	      5.63308812	      6.58372930	      0.11490775	     20.91249646	    -16.69076886	      0.00000000	      5.54706823	     -6.39736948	      9.13368562	     15.98459740	      0.27898385	     29.04141209	    -12.61892598	      0.00000000	      0.31917607	      0.65159487	     -0.02839261	      0.59274188	      0.86662117	     -0.03016715	      0.52437436	      1.58428776	     -0.03016715	      0.36478633	      1.58428776	     -0.02484353	      0.29638690	      1.32873225	     -0.02306899	      0.18237721	      1.00932045	     -0.02129446	      2.27984274	      7.37097145	     -0.15791116	      0.00000000	      0.00000000	     28.03432303	      0.58584289	     -2.86339377	     29.72105820	     -2.84362058	     89.26755054	     37.28472642	     87.91637840	    -12.77826989	     -5.65195574	     16.57288651	     -5.94571494	     38.99765825	     49.69653130	     83.41168947	    -11.68549182	     12.02614677
      0.01923077	      3.67720060	     -4.38409153	     89.23198440	      0.30130535	      0.74382998	      0.63894996	      2.10449512	      6.40812092	      6.29197432	      7.70675201	      0.13450820	     21.88334596	    -16.08695960	      0.00000000	      4.91960504	     -5.92345618	      9.20040016	     14.88622658	      0.25981367	     29.10355948	    -13.68562576	      0.00000000	      0.32741858	      0.61156447	      0.19084915	      0.60804904	      0.81338075	      0.20277722	      0.53791598	      1.48695785	      0.20277722	      0.37420669	      1.48695785	      0.16699301	      0.30404089	      1.24710227	      0.15506493	      0.18708697	      0.94731337	      0.14313686	      2.33871814	      6.91813961	      1.06144572	      0.00000000	      0.00000000	     28.06692298	      0.57672595	     -3.28520010	     28.61823474	     -3.00501584	     85.33009547	     37.13772665	     87.02188927	    -10.52984805	     -6.32449262	     16.81457707	     -5.92406621	     39.17218915	     49.74542957	     84.76654996	    -11.62913530	     10.92595738
      0.03846154	      3.34217904	     -4.52803590	     88.35233395	      0.30175666	      0.74340925	      0.63931869	      2.65081467	      6.01990655	      6.66247190	      8.67851537	      0.15146867	     22.58493148	    -15.47797554	      0.00000000	      4.51225894	     -5.56286839	      8.98149608	     14.08313828	      0.24579713	     29.03836219	    -14.26546587	      0.00000000	      0.33633994	      0.58104606	      0.34356860	      0.62461691	      0.77279126	      0.36504163	      0.55257289	      1.41275539	      0.36504163	      0.38440292	      1.41275539	      0.30062252	      0.31232527	      1.18486913	      0.27914948	      0.19218464	      0.90004035	      0.25767645	      2.40244259	      6.57290925	      1.91082546	      0.00000000	      0.00000000	     28.08634636	      0.66343184	     -3.32759053	     27.67270152	     -3.14171029	     82.25022881	     37.25611797	     86.03241872	     -8.63954714	     -6.37126927	     16.76293299	     -5.89771500	     39.03287023	     50.03970793	     84.62917328	    -11.59653050	     10.66328277
      0.05769231	      3.18244036	     -4.53005886	     88.15744053	      0.30145813	      0.74309717	      0.63979579	      3.01605308	      5.81831584	      6.69828106	      9.52313601	      0.16621008	     22.98456901	    -15.45527178	      0.00000000	      4.19873548	     -5.37094662	      9.17828558	     13.47865585	      0.23524692	     29.01259481	    -14.42271785	      0.00000000	      0.32824829	      0.57192902	      0.34937931	      0.60958990	      0.76066559	      0.37121551	      0.53927911	      1.39058821	      0.37121551	      0.37515497	      1.39058821	      0.30570689	      0.30481136	      1.16627765	      0.28387069	      0.18756107	      0.88591805	      0.26203448	      2.34464470	      6.46977544	      1.94314288	      0.00000000	      0.00000000	     28.09099622	      0.57352652	     -3.13127471	     27.31091409	     -3.28930248	     81.35514758	     37.51485049	     85.47606982	     -8.25273738	     -6.52868156	     16.49778892	     -5.84083514	     38.59584166	     50.47243221	     83.99731799	    -11.57682554	     10.69208619
      0.07692308	      2.90598494	     -4.60572487	     87.55880294	      0.30179994	      0.74290186	      0.64033081	      3.35243991	      5.50031304	      6.91955293	     10.10608268	      0.17638442	     23.29825774	    -14.89485856	      0.00000000	      4.04071782	     -5.04906857	      9.11514003	     13.13936512	      0.22932518	     28.53977377	    -15.33350736	      0.00000000	      0.33529549	      0.54754230	      0.46188871	      0.62267726	      0.72823126	      0.49075676	      0.55085696	      1.33129435	      0.49075676	      0.38320922	      1.33129435	      0.40415262	      0.31135539	      1.11654826	      0.37528458	      0.19158784	      0.84814303	      0.34641653	      2.39498217	      6.19390804	      2.56888645	      0.00000000	      0.00000000	     28.07934652	      0.65487395	     -3.03563626	     26.35009306	     -3.50808476	     78.49484051	     37.94214290	     84.81623838	     -5.84912566	     -5.64511345	     16.35399774	     -5.80805042	     38.84976055	     50.70269569	     79.80878487	    -11.56346214	     10.89306599
